<svg version="1" xmlns="http://www.w3.org/2000/svg" width="682.667" height="682.667" viewBox="0 0 512.000000 512.000000"><path d="M0 256v256h512V0H0v256zm511-90v165l-2.2-1.4c-4.4-2.7-164.3-94.8-165.5-95.3-1-.4-1.3 7.6-1.3 40.3 0 43.2-.7 52.4-5.1 68.4-10.8 39.4-43 65.6-88.7 72.1-11.1 1.5-44.3.6-53.7-1.5-21.5-4.9-40.2-14-52.7-25.7l-4.6-4.4 14.8-25.4c8.2-14 15.3-25.8 15.8-26.3.6-.6 2.8.7 5.6 3.1 15.6 13.5 29.5 19.1 47.4 19.1 20.5 0 36.2-9 44.3-25.5 5.6-11.6 5.9-14.4 5.9-78.1v-58.1l-135-77.9L1 36.5V1h510v165zM140.5 429.3c74.3 42.8 136.4 78.7 138 79.8 3 1.8.8 1.9-137.2 1.9H1V348.9l2.3 1.2c1.2.7 63 36.3 137.2 79.2z"/></svg>